<svg width="184" height="57" viewBox="0 0 184 57" fill="none" xmlns="http://www.w3.org/2000/svg">
<g clip-path="url(#clip0_8591_948)">
<path d="M9.76162 28.1019C17.4168 20.9876 26.6261 16.1044 36.4147 13.6349C36.6826 13.5673 37.018 13.487 37.4208 13.3939C38.1532 13.2249 38.884 13.6815 39.053 14.4138C39.0616 14.4509 39.0686 14.4883 39.0739 14.5259C39.1336 14.94 39.1806 15.2857 39.2148 15.5628C40.4494 25.5783 39.2262 35.926 35.3628 45.6319C31.9235 44.2073 28.553 42.509 25.2811 40.5315L18.3347 44.3874C17.924 44.6154 17.4062 44.4672 17.1782 44.0565C17.089 43.8956 17.0542 43.7101 17.0793 43.5277L18.1624 35.6571C15.1356 33.3217 12.3336 30.7934 9.76162 28.1019ZM20.2408 32.9635L21.8016 34.1679L21.1454 38.936L25.3536 36.6001L27.0409 37.6198C29.1143 38.873 31.2393 40.0149 33.4096 41.0439C35.9245 33.3791 36.7899 25.2837 35.9824 17.2677C28.217 19.4135 20.9823 23.1474 14.7455 28.2639C16.4897 29.9153 18.3227 31.4836 20.2408 32.9635ZM25.497 32.5808C23.1716 30.9885 22.5772 27.8125 24.1696 25.4869C25.7619 23.1615 28.9379 22.5672 31.2634 24.1595C33.5889 25.7519 34.1832 28.9279 32.5909 31.2533C30.9985 33.5789 27.8226 34.1732 25.497 32.5808ZM27.4191 29.7737C28.1943 30.3045 29.253 30.1063 29.7838 29.3312C30.3145 28.5561 30.1165 27.4973 29.3413 26.9665C28.5662 26.4358 27.5073 26.634 26.9766 27.409C26.4458 28.1842 26.6441 29.243 27.4191 29.7737Z" fill="white"/>
</g>
<path d="M72.1719 32.7833C72.1719 36.6193 69.0919 39.3073 64.0519 39.3073C58.9839 39.3073 55.8199 36.5913 55.5119 32.3353H59.8239C59.9359 34.5473 61.3639 35.9753 63.9679 35.9753C66.1239 35.9753 67.6639 35.0233 67.6639 33.3993C67.6639 32.1393 66.6839 31.3833 64.9759 31.0473L61.6719 30.4033C58.6199 29.8153 56.2679 28.1633 56.2679 24.8313C56.2679 21.2473 59.4319 18.6713 63.7719 18.6713C68.2799 18.6713 71.5839 21.3033 71.8639 25.5033H67.5519C67.4119 23.4033 65.9559 21.9753 63.8279 21.9753C61.7559 21.9753 60.5799 23.1513 60.5799 24.5513C60.5799 25.9233 61.8399 26.5113 63.2959 26.7913L66.7399 27.4913C70.2679 28.1913 72.1719 29.8153 72.1719 32.7833ZM83.5983 39.0273V37.1793C82.6183 38.5793 81.1343 39.3073 79.0903 39.3073C75.9823 39.3073 73.9103 37.4873 73.9103 34.6873C73.9103 31.7753 76.2623 30.2073 80.6303 30.2073C81.4703 30.2073 82.1983 30.2633 83.1223 30.3753V29.4793C83.1223 27.7993 82.1703 26.8193 80.5463 26.8193C78.8663 26.8193 77.8583 27.7993 77.7183 29.4793H74.2183C74.4423 26.0353 76.9343 23.7953 80.5463 23.7953C84.4663 23.7953 86.7623 25.9513 86.7623 29.6193V39.0273H83.5983ZM77.5783 34.5753C77.5783 35.8353 78.4743 36.6193 79.9303 36.6193C81.9183 36.6193 83.1223 35.5273 83.1223 33.7913V32.7273C82.1983 32.5873 81.5543 32.5313 80.8823 32.5313C78.6703 32.5313 77.5783 33.2313 77.5783 34.5753ZM98.7402 39.0273V37.1793C97.7602 38.5793 96.2762 39.3073 94.2322 39.3073C91.1242 39.3073 89.0522 37.4873 89.0522 34.6873C89.0522 31.7753 91.4042 30.2073 95.7722 30.2073C96.6122 30.2073 97.3402 30.2633 98.2642 30.3753V29.4793C98.2642 27.7993 97.3122 26.8193 95.6882 26.8193C94.0082 26.8193 93.0002 27.7993 92.8602 29.4793H89.3602C89.5842 26.0353 92.0762 23.7953 95.6882 23.7953C99.6082 23.7953 101.904 25.9513 101.904 29.6193V39.0273H98.7402ZM92.7202 34.5753C92.7202 35.8353 93.6162 36.6193 95.0722 36.6193C97.0602 36.6193 98.2642 35.5273 98.2642 33.7913V32.7273C97.3402 32.5873 96.6962 32.5313 96.0242 32.5313C93.8122 32.5313 92.7202 33.2313 92.7202 34.5753ZM117.606 34.2393C117.606 37.3753 115.226 39.3073 110.97 39.3073C106.714 39.3073 104.334 37.2633 104.026 33.9313H107.75C107.778 35.4713 109.094 36.4513 111.026 36.4513C112.538 36.4513 113.686 35.9753 113.686 34.9113C113.686 33.9593 113.07 33.5673 111.642 33.2873L108.954 32.7833C106.266 32.3073 104.642 30.8233 104.642 28.4993C104.642 25.7273 107.022 23.7953 110.746 23.7953C114.498 23.7953 117.074 25.7833 117.354 29.0033H113.63C113.49 27.5473 112.398 26.6513 110.746 26.6513C109.318 26.6513 108.366 27.1833 108.366 28.1353C108.366 29.0313 108.982 29.3953 110.326 29.6473L113.21 30.1793C116.122 30.7393 117.606 32.0833 117.606 34.2393ZM119.003 31.5513C119.003 27.1273 121.607 23.7953 125.639 23.7953C127.431 23.7953 128.943 24.5793 130.063 26.0073V18.9233H133.927V39.0273H130.371V36.8713C129.195 38.4393 127.571 39.3073 125.639 39.3073C121.607 39.3073 119.003 35.9193 119.003 31.5513ZM123.007 31.5513C123.007 34.3513 124.603 35.8353 126.507 35.8353C128.439 35.8353 130.035 34.3233 130.035 31.4953C130.035 28.6673 128.411 27.2393 126.507 27.2393C124.603 27.2393 123.007 28.6953 123.007 31.5513ZM143.617 39.2793C139.137 39.2793 136.141 36.1713 136.141 31.4953C136.141 27.0433 139.249 23.7953 143.561 23.7953C148.293 23.7953 151.429 27.6313 150.729 32.5033H140.117C140.369 34.9393 141.545 36.2833 143.533 36.2833C145.241 36.2833 146.389 35.4433 146.837 33.9593H150.701C149.861 37.3473 147.257 39.2793 143.617 39.2793ZM143.477 26.6513C141.657 26.6513 140.509 27.8273 140.173 30.0393H146.613C146.501 27.9673 145.325 26.6513 143.477 26.6513ZM165.684 34.2393C165.684 37.3753 163.304 39.3073 159.048 39.3073C154.792 39.3073 152.412 37.2633 152.104 33.9313H155.828C155.856 35.4713 157.172 36.4513 159.104 36.4513C160.616 36.4513 161.764 35.9753 161.764 34.9113C161.764 33.9593 161.148 33.5673 159.72 33.2873L157.032 32.7833C154.344 32.3073 152.72 30.8233 152.72 28.4993C152.72 25.7273 155.1 23.7953 158.824 23.7953C162.576 23.7953 165.152 25.7833 165.432 29.0033H161.708C161.568 27.5473 160.476 26.6513 158.824 26.6513C157.396 26.6513 156.444 27.1833 156.444 28.1353C156.444 29.0313 157.06 29.3953 158.404 29.6473L161.288 30.1793C164.2 30.7393 165.684 32.0833 165.684 34.2393ZM171.953 39.0273H168.061V18.9233H171.953V30.4033L177.413 24.0753H181.893L175.705 31.2433L182.621 39.0273H177.665L171.953 32.0833V39.0273Z" fill="white"/>
<defs>
<clipPath id="clip0_8591_948">
<rect width="40.8258" height="40.8258" fill="white" transform="translate(23.0664) rotate(34.4009)"/>
</clipPath>
</defs>
</svg>
